<svg width="179" height="26" viewBox="0 0 179 26" fill="none" xmlns="http://www.w3.org/2000/svg">
<g style="mix-blend-mode:exclusion">
<path d="M154.812 0.402344H161.493L166.904 9.68829L172.382 0.402344H178.996L169.643 15.2665V24.6193H163.931V15.1997L154.812 0.402344Z" fill="white"/>
<path d="M152.186 15.5991H157.798C156.896 21.2107 152.386 25.052 146.274 25.052C138.725 25.052 134.148 20.242 134.148 12.4926C134.148 4.84339 138.858 0 146.441 0C152.487 0 156.829 3.94152 157.631 9.45296H152.019C151.384 6.14609 148.946 4.70978 146.24 4.70978C142.867 4.70978 140.194 7.54901 140.194 12.4926C140.194 17.6032 142.833 20.3422 146.307 20.3422C148.812 20.3422 151.451 19.2733 152.186 15.5991Z" fill="white"/>
<path d="M133.242 24.6193H126.294L116.574 7.91795V24.6193H111.062V0.402344H118.01L127.73 17.1037V0.402344H133.242V24.6193Z" fill="white"/>
<path d="M90.9219 24.6193V0.402344H109.494V5.41274H96.6337V9.65489H108.792V14.6987H96.6337V19.5755H109.494V24.6193H90.9219Z" fill="white"/>
<path d="M77.6559 0C83.0337 0 87.3426 2.70562 88.5117 7.98324H82.9001C82.3657 6.31311 80.6955 4.70978 77.5891 4.70978C74.0818 4.70978 71.3428 7.31519 71.3428 12.4258C71.3428 17.5364 73.848 20.3422 77.6893 20.3422C80.3281 20.3422 83.0671 19.3402 83.0671 16.2671V15.7995H77.2216V11.1231H88.779V24.6178H84.4032L84.2362 21.9456C82.6663 24.0833 80.2947 25.052 76.8208 25.052C69.706 25.052 65.2969 20.1752 65.2969 12.4258C65.2969 4.77658 70.3073 0 77.6559 0Z" fill="white"/>
<path d="M43.1094 24.6193L52.2283 0.402344H58.508L67.6603 24.6193H61.4474L59.9777 20.3103H50.625L49.1887 24.6193H43.1094ZM55.3348 6.44823L52.1949 15.6674H58.4412L55.3348 6.44823Z" fill="white"/>
<path d="M31.0255 7.58392L25.2803 14.6653H31.0255V7.58392ZM39.8772 14.6653V19.5087H36.537V24.6193H31.0255V19.5087H19.2344V15.1997L31.4264 0.402344H36.537V14.6653H39.8772Z" fill="white"/>
<path d="M9.72018 20.9784C12.1586 20.9784 13.9957 19.4419 13.9957 16.636C13.9957 13.6632 11.9582 12.2269 9.82039 12.2269C7.91644 12.2269 6.51352 13.062 5.67846 14.6319L0.634651 14.1308L2.33819 0.402344H18.5385V4.8783H6.91436L6.34651 9.42107C7.5156 8.6194 9.45296 8.15177 11.1565 8.15177C15.5322 8.15177 19.6742 10.991 19.6742 16.6026C19.6742 22.1475 15.098 25.0535 9.78699 25.0535C4.77658 25.0535 0.801664 22.3145 0 17.1705H5.31103C5.81207 19.9763 7.58241 20.9784 9.72018 20.9784Z" fill="white"/>
</g>
</svg>
