<svg width="25" height="25" viewBox="0 0 25 25" fill="none" xmlns="http://www.w3.org/2000/svg">
<g style="mix-blend-mode:exclusion">
<path d="M22.9944 5.45542C22.7037 8.44186 21.4439 15.7001 20.8043 19.0455C20.533 20.4632 19.9904 20.9357 19.4864 20.9925C18.3623 21.0869 17.5096 20.2742 16.4242 19.5748C14.7185 18.4785 13.7495 17.7981 12.1022 16.7395C10.1834 15.511 11.4238 14.8306 12.5285 13.7343C12.8192 13.4507 17.7808 9.04672 17.8778 8.64971C17.8912 8.58965 17.8894 8.5272 17.8725 8.46793C17.8556 8.40866 17.8241 8.35426 17.7808 8.30949C17.6646 8.21508 17.5096 8.25282 17.3739 8.27175C17.1995 8.30949 14.486 10.0674 9.19483 13.5453C8.41958 14.0556 7.72192 14.3202 7.10172 14.3013C6.40393 14.2824 5.08607 13.9232 4.09766 13.6019C2.87658 13.224 1.9269 13.016 2.00443 12.3545C2.04319 12.0142 2.52773 11.674 3.43861 11.3149C9.098 8.91435 12.8579 7.32667 14.738 6.57062C20.1259 4.37808 21.2308 4 21.9672 4C22.1222 4 22.4905 4.03785 22.723 4.22678C22.9169 4.37808 22.975 4.58593 22.9944 4.73712C22.975 4.85056 23.0138 5.19079 22.9944 5.45542Z" fill="white"/>
</g>
</svg>
